<mxfile modified="2022-11-03T12:27:29.501Z" host="app.diagrams.net" agent="5.0 (Windows NT 10.0; Win64; x64) AppleWebKit/537.36 (KHTML, like Gecko) Chrome/106.0.0.0 Safari/537.36" etag="vIjrPq-styKFpWJiqEma" version="20.4.2" type="github">
  <diagram id="C2fSY1v2SiZeoUbDoYyL" name="Page-1">
    <mxGraphModel dx="782" dy="746" grid="1" gridSize="10" guides="1" tooltips="1" connect="1" arrows="1" fold="1" page="1" pageScale="1" pageWidth="1169" pageHeight="827" math="0" shadow="0">
      <root>
        <mxCell id="0" />
        <mxCell id="1" parent="0" />
        <mxCell id="3ne1QswCM8ZiEu4GHsYG-4" value="VehÃ­culos" style="shape=image;verticalLabelPosition=bottom;verticalAlign=top;aspect=fixed;image=data:image/svg+xml,PHN2ZyB4bWxucz0iaHR0cDovL3d3dy53My5vcmcvMjAwMC9zdmciIHhtbG5zOnhsaW5rPSJodHRwOi8vd3d3LnczLm9yZy8xOTk5L3hsaW5rIiB2ZXJzaW9uPSIxLjEiIGlkPSJMYXllcl8xIiB4PSIwcHgiIHk9IjBweCIgd2lkdGg9IjQ4cHgiIGhlaWdodD0iNDhweCIgdmlld0JveD0iMCAwIDQ4IDQ4IiBlbmFibGUtYmFja2dyb3VuZD0ibmV3IDAgMCA0OCA0OCIgeG1sOnNwYWNlPSJwcmVzZXJ2ZSI+JiN4YTs8ZyBpZD0iY29sb3JfMjNfIj4mI3hhOwk8Zz4mI3hhOwkJPHBhdGggZmlsbD0iI0ZGREE4RSIgZD0iTTQxLDI5VjdjMC0wLjU1My0wLjQ0Ny0xLTEtMUgyNHY3YzAsMC41NTMtMC40NDcsMS0xLDFoLTNjLTAuNTUzLDAtMS0wLjQ0Ny0xLTFWNmgtNSAgICBjLTAuNTUzLDAtMSwwLjQ0Ny0xLDF2MjJjMCwwLjU1MywwLjQ0NywxLDEsMWgyNkM0MC41NTMsMzAsNDEsMjkuNTUzLDQxLDI5eiBNMTAuNSwzN0M5LjExOSwzNyw4LDM4LjExOSw4LDM5LjVTOS4xMTksNDIsMTAuNSw0MiAgICBzMi41LTEuMTE5LDIuNS0yLjVTMTEuODgxLDM3LDEwLjUsMzd6IE0yMC41LDM3Yy0xLjM4MSwwLTIuNSwxLjExOS0yLjUsMi41czEuMTE5LDIuNSwyLjUsMi41czIuNS0xLjExOSwyLjUtMi41ICAgIFMyMS44ODEsMzcsMjAuNSwzN3ogTTMwLjUsMzdjLTEuMzgxLDAtMi41LDEuMTE5LTIuNSwyLjVzMS4xMTksMi41LDIuNSwyLjVzMi41LTEuMTE5LDIuNS0yLjVTMzEuODgxLDM3LDMwLjUsMzd6IE00MC41LDM3ICAgIGMtMS4zODEsMC0yLjUsMS4xMTktMi41LDIuNXMxLjExOSwyLjUsMi41LDIuNXMyLjUtMS4xMTksMi41LTIuNVM0MS44ODEsMzcsNDAuNSwzN3oiLz4mI3hhOwk8L2c+JiN4YTs8L2c+JiN4YTs8ZyBpZD0ib3V0bGluZV8yMl8iPiYjeGE7CTxnPiYjeGE7CQk8cGF0aCBmaWxsLXJ1bGU9ImV2ZW5vZGQiIGNsaXAtcnVsZT0iZXZlbm9kZCIgZmlsbD0iIzM4NEQ2OCIgZD0iTTIyLDM4YzAtMS42NTctMS4zNDQtMy0zLTNzLTMsMS4zNDMtMywzczEuMzQ0LDMsMywzICAgIFMyMiwzOS42NTcsMjIsMzh6IE0xOCwzOGMwLTAuNTUzLDAuNDQ3LTEsMS0xczEsMC40NDcsMSwxcy0wLjQ0NywxLTEsMVMxOCwzOC41NTMsMTgsMzh6IE00MiwzOGMwLTEuNjU3LTEuMzQzLTMtMy0zICAgIHMtMywxLjM0My0zLDNzMS4zNDMsMywzLDNTNDIsMzkuNjU3LDQyLDM4eiBNMzgsMzhjMC0wLjU1MywwLjQ0Ny0xLDEtMXMxLDAuNDQ3LDEsMXMtMC40NDcsMS0xLDFTMzgsMzguNTUzLDM4LDM4eiBNMzIsMzggICAgYzAtMS42NTctMS4zNDMtMy0zLTNzLTMsMS4zNDMtMywzczEuMzQzLDMsMywzUzMyLDM5LjY1NywzMiwzOHogTTI4LDM4YzAtMC41NTMsMC40NDctMSwxLTFzMSwwLjQ0NywxLDFzLTAuNDQ3LDEtMSwxICAgIFMyOCwzOC41NTMsMjgsMzh6IE0xMiwzOGMwLTEuNjU3LTEuMzQ0LTMtMy0zcy0zLDEuMzQzLTMsM3MxLjM0NCwzLDMsM1MxMiwzOS42NTcsMTIsMzh6IE04LDM4YzAtMC41NTMsMC40NDctMSwxLTFzMSwwLjQ0NywxLDEgICAgcy0wLjQ0NywxLTEsMVM4LDM4LjU1Myw4LDM4eiBNMzksMzFIM2MtMC41NTMsMC0xLDAuNDQ3LTEsMXMwLjQ0NywxLDEsMWgzNmMyLjc2MiwwLDUsMi4yMzgsNSw1cy0yLjIzOCw1LTUsNUgzICAgIGMtMC41NTMsMC0xLDAuNDQ3LTEsMXMwLjQ0NywxLDEsMWgzNmMzLjg2NiwwLDctMy4xMzQsNy03UzQyLjg2NiwzMSwzOSwzMXogTTEwLDI5aDI4YzAuNTUzLDAsMS0wLjQ0NywxLTFWNGMwLTAuNTUzLTAuNDQ3LTEtMS0xICAgIEgxMEM5LjQ0NywzLDksMy40NDcsOSw0djI0QzksMjguNTUzLDkuNDQ3LDI5LDEwLDI5eiBNMjksNmMwLTAuNTUzLDAuNDQ3LTEsMS0xaDd2MjJoLTdjLTAuNTUzLDAtMS0wLjQ0Ny0xLTFWNnogTTE4LDVoMnY2aC0yVjV6ICAgICBNMTEsNWg1djdjMCwwLjU1MywwLjQ0NywxLDEsMWg0YzAuNTUzLDAsMS0wLjQ0NywxLTFWNWg0YzAuNTUzLDAsMSwwLjQ0NywxLDF2MjBjMCwwLjU1My0wLjQ0NywxLTEsMUgxMVY1eiIvPiYjeGE7CTwvZz4mI3hhOzwvZz4mI3hhOzwvc3ZnPg==" parent="1" vertex="1">
          <mxGeometry x="320" y="327.00000000000034" width="48" height="48" as="geometry" />
        </mxCell>
        <mxCell id="3ne1QswCM8ZiEu4GHsYG-17" style="orthogonalLoop=1;jettySize=auto;html=1;curved=1;targetPerimeterSpacing=5;startArrow=none;" parent="1" source="AtJPnU6ylXlXL8gNKxG5-1" target="AtJPnU6ylXlXL8gNKxG5-3" edge="1">
          <mxGeometry relative="1" as="geometry">
            <mxPoint x="89.5" y="351.00000000000045" as="sourcePoint" />
            <mxPoint x="131.5" y="351.0000000000002" as="targetPoint" />
          </mxGeometry>
        </mxCell>
        <mxCell id="3ne1QswCM8ZiEu4GHsYG-25" style="orthogonalLoop=1;jettySize=auto;html=1;curved=1;sourcePerimeterSpacing=5;targetPerimeterSpacing=5;" parent="1" source="3ne1QswCM8ZiEu4GHsYG-13" target="3ne1QswCM8ZiEu4GHsYG-15" edge="1">
          <mxGeometry relative="1" as="geometry">
            <Array as="points">
              <mxPoint x="934.5" y="439" />
            </Array>
            <mxPoint x="705.5" y="433.67441860465124" as="sourcePoint" />
          </mxGeometry>
        </mxCell>
        <mxCell id="3ne1QswCM8ZiEu4GHsYG-27" style="orthogonalLoop=1;jettySize=auto;html=1;curved=1;sourcePerimeterSpacing=5;targetPerimeterSpacing=5;" parent="1" source="3ne1QswCM8ZiEu4GHsYG-7" target="3ne1QswCM8ZiEu4GHsYG-13" edge="1">
          <mxGeometry relative="1" as="geometry">
            <Array as="points">
              <mxPoint x="754.5" y="289" />
            </Array>
          </mxGeometry>
        </mxCell>
        <mxCell id="3ne1QswCM8ZiEu4GHsYG-7" value="Nueva Compra" style="shape=image;verticalLabelPosition=bottom;verticalAlign=top;aspect=fixed;image=data:image/svg+xml,PHN2ZyB4bWxucz0iaHR0cDovL3d3dy53My5vcmcvMjAwMC9zdmciIHhtbG5zOnhsaW5rPSJodHRwOi8vd3d3LnczLm9yZy8xOTk5L3hsaW5rIiB2ZXJzaW9uPSIxLjEiIGlkPSJMYXllcl8xIiB4PSIwcHgiIHk9IjBweCIgd2lkdGg9IjQ4cHgiIGhlaWdodD0iNDhweCIgdmlld0JveD0iMCAwIDQ4IDQ4IiBlbmFibGUtYmFja2dyb3VuZD0ibmV3IDAgMCA0OCA0OCIgeG1sOnNwYWNlPSJwcmVzZXJ2ZSI+JiN4YTs8ZyBpZD0iY29sb3JfMjVfIj4mI3hhOwk8Zz4mI3hhOwkJPHBhdGggZmlsbD0iI0YxNjM2MiIgZD0iTTI3LDQxLjAxOWM5Ljk0MSwwLDE4LTguMDU5LDE4LTE4cy04LjA1OS0xOC0xOC0xOHMtMTgsOC4wNTktMTgsMThTMTcuMDU5LDQxLjAxOSwyNyw0MS4wMTl6ICAgICBNMTQuMDQzLDIzLjA5N2MwLjE2My0wLjE2LDAuMjY1LTAuMTg4LDAuMjY1LTAuMTg4bDIuNTIxLTEuMTMybDAuNDU2LTAuMTA1YzAuMjYxLDAsMC41MjEsMC4wOTgsMC43MiwwLjI5M2wwLjg4NiwwLjYgICAgbDMuMDAxLTIuODc4bC0zLjU5Ny0zLjUzNWMtMC4zOTgtMC4zOTEtMC42NDUtMC43NzYtMC4yNDgtMS4xNjdsMS4xOTEtMS4yNDljMC4zMDktMC4zMDQsMC42NjgtMC4zMzMsMS4wNDQtMC4xNjZsMC4wMDMtMC4wMDcgICAgbDUuMzM2LDIuMzg1bDIuNDk4LTIuMzc3YzAuNjk3LTAuNTk1LDIuMjE4LTEuMTcyLDMuNDEsMHMwLjQ1LDIuNDkzLTAuMDgzLDMuMjUzbC0yLjYsMi41NjFsMi4zOTMsNS4xNzVsLTAuMDA2LDAuMDAzICAgIGMwLjE3LDAuMzY4LDAuMTkyLDAuNzczLTAuMTE3LDEuMDc3bC0xLjEwOSwxLjA4NGMtMC4zOTcsMC4zOTEtMC44NzYsMC4yMjYtMS4yNzQtMC4xNjVsLTMuNTk3LTMuNTM1bC0yLjkyNiwyLjgwMmwwLjU2MywwLjgxMyAgICBjMC4xOTksMC4xOTUsMC4yOTgsMC40NTIsMC4yOTgsMC43MDhjMCwwLjE1My0wLjA0NywwLjMwMi0wLjExOSwwLjQ0MmwtMS4wNjksMi41NTJjMCwwLTAuMDI3LDAuMTAxLTAuMTksMC4yNjEgICAgYy0wLjM5OCwwLjM5MS0xLjA0MiwwLjM5MS0xLjQ0LDBjMCwwLTIuMTctMy41MzMtMi4yNDUtMy42MDZjLTAuMTI3LTAuMTI2LTMuOTY2LTIuNDgxLTMuOTY2LTIuNDgxICAgIEMxMy42NDYsMjQuMTIyLDEzLjY0NiwyMy40ODgsMTQuMDQzLDIzLjA5N3ogTTExLDQyLjAxOUg1Yy0wLjM5MSwwLTAuNzIxLDAuMjMtMC44ODUsMC41NThsLTAuMDA5LTAuMDA1bC0xLDJsMC4wMDksMC4wMDUgICAgQzMuMDQ3LDQ0LjcxMSwzLDQ0Ljg1OCwzLDQ1LjAxOWMwLDAuNTUzLDAuNDQ4LDEsMSwxaDZjMC4zOTEsMCwwLjcyMS0wLjIzLDAuODg1LTAuNTU4bDAuMDA5LDAuMDA1bDEtMmwtMC4wMDktMC4wMDUgICAgQzExLjk1Myw0My4zMjcsMTIsNDMuMTgsMTIsNDMuMDE5QzEyLDQyLjQ2NiwxMS41NTIsNDIuMDE5LDExLDQyLjAxOXogTTIyLDQyLjAxOWgtNmMtMC4zOTEsMC0wLjcyMSwwLjIzLTAuODg1LDAuNTU4ICAgIGwtMC4wMDktMC4wMDVsLTEsMmwwLjAwOSwwLjAwNUMxNC4wNDcsNDQuNzExLDE0LDQ0Ljg1OCwxNCw0NS4wMTljMCwwLjU1MywwLjQ0OCwxLDEsMWg2YzAuMzkxLDAsMC43MjEtMC4yMywwLjg4NS0wLjU1OCAgICBsMC4wMDksMC4wMDVsMS0ybC0wLjAwOS0wLjAwNUMyMi45NTMsNDMuMzI3LDIzLDQzLjE4LDIzLDQzLjAxOUMyMyw0Mi40NjYsMjIuNTUyLDQyLjAxOSwyMiw0Mi4wMTl6IE00NCw0Mi4wMTloLTYgICAgYy0wLjM5MSwwLTAuNzIxLDAuMjMtMC44ODUsMC41NThsLTAuMDA5LTAuMDA1bC0xLDJsMC4wMDksMC4wMDVDMzYuMDQ3LDQ0LjcxMSwzNiw0NC44NTgsMzYsNDUuMDE5YzAsMC41NTMsMC40NDgsMSwxLDFoNiAgICBjMC4zOTEsMCwwLjcyMS0wLjIzLDAuODg1LTAuNTU4bDAuMDA5LDAuMDA1bDEtMmwtMC4wMDktMC4wMDVDNDQuOTUzLDQzLjMyNyw0NSw0My4xOCw0NSw0My4wMTkgICAgQzQ1LDQyLjQ2Niw0NC41NTIsNDIuMDE5LDQ0LDQyLjAxOXogTTMzLDQyLjAxOWgtNmMtMC4zOTEsMC0wLjcyMSwwLjIzLTAuODg1LDAuNTU4bC0wLjAwOS0wLjAwNWwtMSwybDAuMDA5LDAuMDA1ICAgIEMyNS4wNDcsNDQuNzExLDI1LDQ0Ljg1OCwyNSw0NS4wMTljMCwwLjU1MywwLjQ0OCwxLDEsMWg2YzAuMzkxLDAsMC43MjEtMC4yMywwLjg4NS0wLjU1OGwwLjAwOSwwLjAwNWwxLTJsLTAuMDA5LTAuMDA1ICAgIEMzMy45NTMsNDMuMzI3LDM0LDQzLjE4LDM0LDQzLjAxOUMzNCw0Mi40NjYsMzMuNTUyLDQyLjAxOSwzMyw0Mi4wMTl6Ii8+JiN4YTsJPC9nPiYjeGE7PC9nPiYjeGE7PGcgaWQ9Im91dGxpbmVfMjRfIj4mI3hhOwk8Zz4mI3hhOwkJPHBhdGggZmlsbD0iIzM4NEQ2OCIgZD0iTTI0LDEuOTgxYy0xMC41MDIsMC0xOS4wMTYsOC41MTQtMTkuMDE2LDE5LjAxNlMxMy40OTgsNDAuMDEyLDI0LDQwLjAxMnMxOS4wMTYtOC41MTQsMTkuMDE2LTE5LjAxNiAgICBTMzQuNTAyLDEuOTgxLDI0LDEuOTgxeiBNMjQsMzguMDExYy05LjM5NiwwLTE3LjAxNC03LjYxOC0xNy4wMTQtMTcuMDE1UzE0LjYwNCwzLjk4MywyNCwzLjk4M1M0MS4wMTQsMTEuNiw0MS4wMTQsMjAuOTk3ICAgIFMzMy4zOTYsMzguMDExLDI0LDM4LjAxMXogTTMxLjc3OCwxMy4yNDFjLTEuMTcyLTEuMTcyLTMuMDcxLTEuMTcyLTQuMjQzLDBsLTIuMjEyLDIuMjEybC01LjI0NS0yLjM4NGwtMC4wMDMsMC4wMDcgICAgYy0wLjM2OS0wLjE2OC0wLjcyMy0wLjEzOC0xLjAyNiwwLjE2NWwtMS40MTQsMS40MTRjLTAuMzkxLDAuMzkyLTAuMzkxLDEuMDIzLDAsMS40MTRsMy41MzUsMy41MzZsLTIuMzgzLDIuMzgzbC0wLjg3MS0wLjYgICAgYy0wLjE5Ni0wLjE5NS0wLjQ1Mi0wLjI5My0wLjcwOC0wLjI5M2wtMC40NDcsMC4xMDVsLTMuMjA3LDEuNzkyYzAsMC0wLjEsMC4wMjYtMC4yNiwwLjE4OGMtMC4zOTEsMC4zOTEtMC4zOTEsMS4wMjQsMCwxLjQxNSAgICBjMCwwLDQuMDk3LDIuNjg2LDQuMjIyLDIuODExYzAuMDc0LDAuMDczLDIuODU1LDQuMjY3LDIuODU1LDQuMjY3YzAuMzkxLDAuMzkxLDEuMDI0LDAuMzkxLDEuNDE2LDAgICAgYzAuMTYtMC4xNjEsMC4xODgtMC4yNjEsMC4xODgtMC4yNjFsMS43OC0zLjIxMmMwLjA3LTAuMTQxLDAuMTE3LTAuMjg5LDAuMTE3LTAuNDQyYzAtMC4yNTYtMC4wOTgtMC41MTItMC4yOTMtMC43MDcgICAgbC0wLjU1NC0wLjgxM2wyLjM4OS0yLjM5bDMuNTM2LDMuNTM2YzAuMzkxLDAuMzkxLDEuMDIzLDAuMzkxLDEuNDE0LDBsMS40MTUtMS40MTRjMC4zMDMtMC4zMDQsMC4yODItMC43MDksMC4xMTQtMS4wNzcgICAgbDAuMDA2LTAuMDAzbC0yLjM1Mi01LjE3NWwyLjIzMS0yLjIzQzMyLjk1LDE2LjMxMiwzMi45NSwxNC40MTMsMzEuNzc4LDEzLjI0MXogTTE5Ljc1NywxNS4zNjJsMC4xMjUtMC4xODRsMy45ODcsMS43MjkgICAgbC0xLjI4MywxLjI4NEwxOS43NTcsMTUuMzYyeiBNMjkuNzksMjUuMDg1bC0wLjEzMywwLjE3NmwtMi44MjgtMi44MjhsMS4yNzQtMS4yNzRMMjkuNzksMjUuMDg1eiBNMzAuMzY0LDE2LjA2OWwtOS44ODgsOS44ODkgICAgYzAuNzUyLDAuOTk5LDEuMTc4LDEuOTk4LDEuMTc4LDEuOTk4bC0wLjg0OCwxLjE3OWMwLDAtMS45NDQtMi45MzUtMi4wMTMtMy4wMDRjLTAuMTIxLTAuMTIxLTIuOTYtMS45NjktMi45Ni0xLjk2OWwxLjE3OS0wLjg0OCAgICBjMCwwLDEuMDUsMC40NTcsMi4wNTUsMS4yMjRsOS44ODItOS44ODNjMC4zOTEtMC4zOTEsMS4wMjQtMC4zOTEsMS40MTQsMEMzMC43NTQsMTUuMDQ1LDMwLjc1NCwxNS42NzksMzAuMzY0LDE2LjA2OXogTTI0LDUuOTg1ICAgIGMtOC4yOTEsMC0xNS4wMTIsNi43MjEtMTUuMDEyLDE1LjAxMlMxNS43MDksMzYuMDA5LDI0LDM2LjAwOXMxNS4wMTItNi43MjIsMTUuMDEyLTE1LjAxM1MzMi4yOTEsNS45ODUsMjQsNS45ODV6IE0yNCwzNC4wMDcgICAgYy03LjE4NiwwLTEzLjAxMS01LjgyNS0xMy4wMTEtMTMuMDExUzE2LjgxNCw3Ljk4NiwyNCw3Ljk4NnMxMy4wMTEsNS44MjUsMTMuMDExLDEzLjAxMVMzMS4xODYsMzQuMDA3LDI0LDM0LjAwN3oiLz4mI3hhOwk8L2c+JiN4YTs8L2c+JiN4YTs8L3N2Zz4=;direction=west;" parent="1" vertex="1">
          <mxGeometry x="530.0000000000001" y="270" width="48" height="48" as="geometry" />
        </mxCell>
        <mxCell id="3ne1QswCM8ZiEu4GHsYG-21" style="orthogonalLoop=1;jettySize=auto;html=1;curved=1;sourcePerimeterSpacing=5;targetPerimeterSpacing=5;" parent="1" source="3ne1QswCM8ZiEu4GHsYG-8" target="3ne1QswCM8ZiEu4GHsYG-7" edge="1">
          <mxGeometry relative="1" as="geometry">
            <Array as="points">
              <mxPoint x="484.5" y="319" />
            </Array>
            <mxPoint x="519.5" y="305" as="targetPoint" />
          </mxGeometry>
        </mxCell>
        <mxCell id="3ne1QswCM8ZiEu4GHsYG-8" value="Opciones" style="shape=image;verticalLabelPosition=bottom;verticalAlign=top;aspect=fixed;image=data:image/svg+xml,PHN2ZyB4bWxucz0iaHR0cDovL3d3dy53My5vcmcvMjAwMC9zdmciIHhtbG5zOnhsaW5rPSJodHRwOi8vd3d3LnczLm9yZy8xOTk5L3hsaW5rIiB2ZXJzaW9uPSIxLjEiIGlkPSJMYXllcl8xIiB4PSIwcHgiIHk9IjBweCIgd2lkdGg9IjQ4cHgiIGhlaWdodD0iNDhweCIgdmlld0JveD0iMCAwIDQ4IDQ4IiBlbmFibGUtYmFja2dyb3VuZD0ibmV3IDAgMCA0OCA0OCIgeG1sOnNwYWNlPSJwcmVzZXJ2ZSI+JiN4YTs8ZyBpZD0iY29sb3JfMzVfIj4mI3hhOwk8Zz4mI3hhOwkJPHBhdGggZmlsbD0iIzg5OENDNSIgZD0iTTQ0LjU3MiwyMy40MmwtMy41LTYuMDYzYy0wLjI3Ni0wLjQ3OS0wLjg4OC0wLjY0My0xLjM2Ni0wLjM2NmwtOS41MjYsNS41ICAgIGMtMC40NzksMC4yNzYtMC42NDIsMC44ODgtMC4zNjYsMS4zNjZsMy41LDYuMDYzYzAuMjc2LDAuNDc4LDAuODg4LDAuNjQyLDEuMzY2LDAuMzY1bDkuNTI2LTUuNSAgICBDNDQuNjg1LDI0LjUxLDQ0Ljg0OSwyMy44OTcsNDQuNTcyLDIzLjQyeiBNNDAuMzAzLDM3Ljk5N2MtMi4yMDksMC00LDEuNzkxLTQsNHMxLjc5MSw0LDQsNHM0LTEuNzkxLDQtNCAgICBTNDIuNTEyLDM3Ljk5Nyw0MC4zMDMsMzcuOTk3eiIvPiYjeGE7CTwvZz4mI3hhOzwvZz4mI3hhOzxnIGlkPSJvdXRsaW5lXzM1XyI+JiN4YTsJPGc+JiN4YTsJCTxwYXRoIGZpbGw9IiMzODRENjgiIGQ9Ik0yOS42NzksMzAuMTMxYzAuMjc1LDAuNDc5LDAuODg4LDAuNjQzLDEuMzY1LDAuMzY2bDEwLjM5My02YzAuNDc5LTAuMjc2LDAuNjQzLTAuODg4LDAuMzY2LTEuMzY2ICAgIGwtNC02LjkyOGMtMC4yNzYtMC40NzktMC44ODgtMC42NDMtMS4zNjYtMC4zNjZsLTEwLjM5Myw2Yy0wLjQ3OCwwLjI3Ni0wLjY0MiwwLjg4OC0wLjM2NSwxLjM2NkwyOS42NzksMzAuMTMxeiBNMzEuMzc1LDIxLjA2OCAgICBsMS41LDIuNTk5bDEuNzMxLTFsLTEuNS0yLjU5OWwzLjQ2NC0xLjk5OWwzLDUuMTk1bC04LjY2LDVsLTMtNS4xOTVMMzEuMzc1LDIxLjA2OHogTTQwLjE4NSwyOS40ODYgICAgYy0wLjI3OS0wLjQ4LTAuODk4LTAuNjQ1LTEuMzgzLTAuMzY3bC05LjY0LDUuNTE1TDEwLjQ0LDIuNTA1QzEwLjE2LDIuMDI1LDkuNTQyLDEuODYsOS4wNTksMi4xMzhMMy44LDUuMTQ2ICAgIEMzLjMxNSw1LjQyMywzLjE1LDYuMDM2LDMuNDMsNi41MTZzMC44OTgsMC42NDQsMS4zODIsMC4zNjdsNC4zODItMi41MDdsMTguNzIyLDMyLjEyOWMwLjI3OSwwLjQ3OSwwLjg5OCwwLjY0NCwxLjM4MiwwLjM2NyAgICBsMTAuNTE3LTYuMDE3QzQwLjI5OCwzMC41NzksNDAuNDY0LDI5Ljk2Niw0MC4xODUsMjkuNDg2eiBNMzcuMzAzLDM1Ljk5N2MtMi43NjIsMC01LDIuMjM4LTUsNXMyLjIzOCw1LDUsNXM1LTIuMjM4LDUtNSAgICBTNDAuMDY0LDM1Ljk5NywzNy4zMDMsMzUuOTk3eiBNMzcuMzAzLDQzLjk5N2MtMS42NTcsMC0zLTEuMzQzLTMtM3MxLjM0My0zLDMtM3MzLDEuMzQzLDMsM1MzOC45Niw0My45OTcsMzcuMzAzLDQzLjk5N3oiLz4mI3hhOwk8L2c+JiN4YTs8L2c+JiN4YTs8L3N2Zz4=" parent="1" vertex="1">
          <mxGeometry x="416.5" y="327.00000000000034" width="48" height="48" as="geometry" />
        </mxCell>
        <mxCell id="3ne1QswCM8ZiEu4GHsYG-18" style="orthogonalLoop=1;jettySize=auto;html=1;curved=1;targetPerimeterSpacing=5;startArrow=none;" parent="1" source="AtJPnU6ylXlXL8gNKxG5-3" target="3ne1QswCM8ZiEu4GHsYG-4" edge="1">
          <mxGeometry relative="1" as="geometry">
            <mxPoint x="189.5" y="351.0000000000002" as="sourcePoint" />
          </mxGeometry>
        </mxCell>
        <mxCell id="3ne1QswCM8ZiEu4GHsYG-20" style="orthogonalLoop=1;jettySize=auto;html=1;curved=1;sourcePerimeterSpacing=5;targetPerimeterSpacing=5;" parent="1" source="3ne1QswCM8ZiEu4GHsYG-4" target="3ne1QswCM8ZiEu4GHsYG-8" edge="1">
          <mxGeometry relative="1" as="geometry">
            <mxPoint x="377.5" y="351.0000000000002" as="sourcePoint" />
          </mxGeometry>
        </mxCell>
        <mxCell id="3ne1QswCM8ZiEu4GHsYG-28" style="orthogonalLoop=1;jettySize=auto;html=1;curved=1;sourcePerimeterSpacing=5;targetPerimeterSpacing=5;entryX=0;entryY=0.75;entryDx=0;entryDy=0;" parent="1" source="3ne1QswCM8ZiEu4GHsYG-11" target="3ne1QswCM8ZiEu4GHsYG-13" edge="1">
          <mxGeometry relative="1" as="geometry">
            <Array as="points">
              <mxPoint x="600" y="376" />
            </Array>
          </mxGeometry>
        </mxCell>
        <mxCell id="3ne1QswCM8ZiEu4GHsYG-11" value="Post Compra" style="shape=image;verticalLabelPosition=bottom;verticalAlign=top;aspect=fixed;image=data:image/svg+xml,PHN2ZyB4bWxucz0iaHR0cDovL3d3dy53My5vcmcvMjAwMC9zdmciIHhtbG5zOnhsaW5rPSJodHRwOi8vd3d3LnczLm9yZy8xOTk5L3hsaW5rIiB2ZXJzaW9uPSIxLjEiIGlkPSJMYXllcl8xIiB4PSIwcHgiIHk9IjBweCIgd2lkdGg9IjQ4cHgiIGhlaWdodD0iNDhweCIgdmlld0JveD0iMCAwIDQ4IDQ4IiBlbmFibGUtYmFja2dyb3VuZD0ibmV3IDAgMCA0OCA0OCIgeG1sOnNwYWNlPSJwcmVzZXJ2ZSI+JiN4YTs8ZyBpZD0iY29sb3JfNTlfIj4mI3hhOwk8Zz4mI3hhOwkJPHBhdGggZmlsbD0iI0YxNjM2MiIgZD0iTTQ0LDVIN0M2LjQ0OCw1LDYsNS40NDcsNiw2djM4YzAsMC41NTMsMC40NDgsMSwxLDFoMzdjMC41NTMsMCwxLTAuNDQ3LDEtMVY2QzQ1LDUuNDQ3LDQ0LjU1Myw1LDQ0LDV6Ii8+JiN4YTsJPC9nPiYjeGE7PC9nPiYjeGE7PGcgaWQ9Im91dGxpbmVfNTdfIj4mI3hhOwk8Zz4mI3hhOwkJPHBhdGggZmlsbD0iIzM4NEQ2OCIgZD0iTTQ1LDJIM0MyLjQ0OCwyLDIsMi40NDcsMiwzdjQyYzAsMC41NTMsMC40NDgsMSwxLDFoNDJjMC41NTMsMCwxLTAuNDQ3LDEtMVYzQzQ2LDIuNDQ3LDQ1LjU1MywyLDQ1LDJ6ICAgICBNNCw0aDE4YzAuNTUyLDAsMSwwLjQ0NywxLDF2MTFjLTAuMzAzLTAuNTg1LTAuNjktMS4wMDMtMS4xOTMtMS41MDJjLTIuMDE1LTIuMDA0LTUuMjgzLTIuMDA0LTcuMjk4LDAgICAgYy0yLjAxNiwyLjAwNC0yLjAxNiw1LjI1MywwLDcuMjU3QzE1LjAyOSwyMi4yNzIsMTUuNDQ1LDIyLjY4MSwxNiwyM0g1Yy0wLjU1MiwwLTEtMC40NDctMS0xVjR6IE0yMyw0M2MwLDAuNTUzLTAuNDQ4LDEtMSwxSDRWMjYgICAgYzAtMC41NTMsMC40NDgtMSwxLTFoMTQuODEzYy0wLjIxMywwLjE1NC0wLjQyNywwLjMwNy0wLjYyLDAuNDk4QzE3LjQyOSwyNy4yNTIsMTcuMDM3LDMzLjUyLDE3LDM1YzAsMC41NTMsMC40NDgsMSwxLDEgICAgczEtMC40NDcsMS0xYzAsMCwwLjAyNS01LjQwNCwxLjU5Ni03Ljk5NUMyMS4wODMsMjYuMjAzLDIyLjE0MSwyNC45NjMsMjMsMjVWNDN6IE0yMywyM2MtMC4xMjgsMC4xMjctNC4zODEtMC4wNDYtNi45NzYtMi42NDEgICAgYy0xLjIzNy0xLjIzNi0xLjI2NS0zLjIwNy0wLjA1Ni00LjQxYzEuMjA5LTEuMjAyLDMuMTk5LTEuMTgxLDQuNDM2LDAuMDU2QzIyLjk5OSwxOC42MDEsMjMuMDI5LDIyLjk3MSwyMywyM3ogTTQ0LDQ0SDI2ICAgIGMtMC41NTMsMC0xLTAuNDQ3LTEtMVYyNWMwLjg1OS0wLjAzNywxLjkxNywxLjIwMywyLjQwNCwyLjAwNUMyOC45NzUsMjkuNTk2LDI5LDM1LDI5LDM1YzAsMC41NTMsMC40NDcsMSwxLDFzMS0wLjQ0NywxLTEgICAgYy0wLjAzNy0xLjQ4LTAuNDI5LTcuNzQ4LTIuMTkzLTkuNTAyQzI4LjYxNSwyNS4zMDcsMjguNCwyNS4xNTQsMjguMTg4LDI1SDQzYzAuNTUzLDAsMSwwLjQ0NywxLDFWNDR6IE0yNy41ODYsMTYuMDE0ICAgIGMxLjIzNi0xLjIzNiwzLjIxNy0xLjI2Miw0LjQyMy0wLjA1NnMxLjE4MSwzLjE4Ni0wLjA1Niw0LjQyM0MyOS4zNTQsMjIuOTc5LDI1LjEyNywyMy4xMjcsMjUsMjMgICAgQzI0Ljk3MSwyMi45NzEsMjUuMDIyLDE4LjU3NywyNy41ODYsMTYuMDE0eiBNNDQsMjJjMCwwLjU1My0wLjQ0NywxLTEsMUgzMmMwLjQ3Ny0wLjMxNSwwLjk2MS0wLjcxNywxLjQ2NS0xLjIyICAgIGMyLjAxLTIuMDEsMi4wMS01LjI2OSwwLTcuMjc4cy01LjI2OS0yLjAxLTcuMjc4LDBDMjUuNjg4LDE1LjAwMSwyNS4zNzEsMTUuMzgxLDI1LDE2VjVjMC0wLjU1MywwLjQ0Ny0xLDEtMWgxOFYyMnoiLz4mI3hhOwk8L2c+JiN4YTs8L2c+JiN4YTs8L3N2Zz4=;fontFamily=Helvetica;fontSize=12;fontColor=default;align=center;strokeColor=default;fillColor=default;" parent="1" vertex="1">
          <mxGeometry x="520" y="410.0000000000003" width="48" height="48" as="geometry" />
        </mxCell>
        <mxCell id="3ne1QswCM8ZiEu4GHsYG-26" style="orthogonalLoop=1;jettySize=auto;html=1;curved=1;sourcePerimeterSpacing=5;targetPerimeterSpacing=5;" parent="1" source="3ne1QswCM8ZiEu4GHsYG-8" target="3ne1QswCM8ZiEu4GHsYG-11" edge="1">
          <mxGeometry relative="1" as="geometry" />
        </mxCell>
        <mxCell id="3ne1QswCM8ZiEu4GHsYG-13" value="Opciones / PersonalizaciÃ³n" style="shape=image;verticalLabelPosition=bottom;verticalAlign=top;aspect=fixed;image=data:image/svg+xml,PHN2ZyB4bWxucz0iaHR0cDovL3d3dy53My5vcmcvMjAwMC9zdmciIHhtbG5zOnhsaW5rPSJodHRwOi8vd3d3LnczLm9yZy8xOTk5L3hsaW5rIiB2ZXJzaW9uPSIxLjEiIGlkPSJMYXllcl8xIiB4PSIwcHgiIHk9IjBweCIgd2lkdGg9IjQ4cHgiIGhlaWdodD0iNDhweCIgdmlld0JveD0iMCAwIDQ4IDQ4IiBlbmFibGUtYmFja2dyb3VuZD0ibmV3IDAgMCA0OCA0OCIgeG1sOnNwYWNlPSJwcmVzZXJ2ZSI+JiN4YTs8ZyBpZD0iY29sb3JfNTVfIj4mI3hhOwk8Zz4mI3hhOwkJPHBhdGggZmlsbD0iI0YxNjM2MiIgZD0iTTQ2LDI4YzAtMC41NTMtMC40NDctMi0xLTJINWMtMC41NTMsMC0xLDAuNDQ3LTEsMWMwLDAuMTAxLDAuMDI5LDAuMTkxLDAuMDU3LDAuMjgzbC0wLjAxNSwwLjAwNGw2LDE4ICAgIGwwLjAxNS0wLjAwNEMxMC4xODEsNDUuNjk0LDEwLjU0OCw0NiwxMSw0NmgyOWMwLjQ1MiwwLDAuODE5LTAuMzA2LDAuOTQzLTAuNzE3bDAuMDE1LDAuMDA0bDUtMTdsLTAuMDE1LTAuMDA0ICAgIEM0NS45NzEsMjguMTkxLDQ2LDI4LjEwMSw0NiwyOHoiLz4mI3hhOwk8L2c+JiN4YTs8L2c+JiN4YTs8ZyBpZD0ib3V0bGluZV81M18iPiYjeGE7CTxnPiYjeGE7CQk8cGF0aCBmaWxsPSIjMzg0RDY4IiBkPSJNMjQsNDBjMC41NTMsMCwxLTAuNDQ3LDEtMVYyOWMwLTAuNTUzLTAuNDQ3LTEtMS0xcy0xLDAuNDQ3LTEsMXYxMEMyMywzOS41NTMsMjMuNDQ3LDQwLDI0LDQweiBNNDYsMjMgICAgYzAtMC41NTMtMC40NDctMS0xLTFIMzQuNjc3TDI2LjkyOSwyLjYyOUwyNi45MjUsMi42M0MyNi43NzcsMi4yNjIsMjYuNDIxLDIsMjYsMmMtMC41NTMsMC0xLDAuNDQ3LTEsMSAgICBjMCwwLjEzMSwwLjAyOCwwLjI1NSwwLjA3NCwwLjM3bC0wLjAwMywwLjAwMWwwLjAwNywwLjAxOGwwLjAwMSwwLjAwMUwzMi41MjMsMjJIMTUuNDc3bDcuNDQ0LTE4LjYxbDAuMDAxLTAuMDAxbDAuMDA3LTAuMDE4ICAgIEwyMi45MjUsMy4zN0MyMi45NzIsMy4yNTUsMjMsMy4xMzEsMjMsM2MwLTAuNTUzLTAuNDQ3LTEtMS0xYy0wLjQyMSwwLTAuNzc3LDAuMjYyLTAuOTI2LDAuNjNsLTAuMDAzLTAuMDAxTDEzLjMyMywyMkgzICAgIGMtMC41NTMsMC0xLDAuNDQ3LTEsMWMwLDAuMTAxLDAuMDI5LDAuMTkxLDAuMDU3LDAuMjgzbC0wLjAxNSwwLjAwNGw2LDIwbDAuMDE1LTAuMDA0QzguMTgxLDQzLjY5NCw4LjU0OCw0NCw5LDQ0aDMwICAgIGMwLjQ1MiwwLDAuODE5LTAuMzA2LDAuOTQzLTAuNzE3bDAuMDE1LDAuMDA0bDYtMjBsLTAuMDE1LTAuMDA0QzQ1Ljk3MSwyMy4xOTEsNDYsMjMuMTAxLDQ2LDIzeiBNMzguMjU2LDQySDkuNzQ0bC01LjQtMThoMzkuMzEzICAgIEwzOC4yNTYsNDJ6IE0zMiw0MGMwLjU1MywwLDEtMC40NDcsMS0xVjI5YzAtMC41NTMtMC40NDctMS0xLTFzLTEsMC40NDctMSwxdjEwQzMxLDM5LjU1MywzMS40NDcsNDAsMzIsNDB6IE0xNiw0MCAgICBjMC41NTMsMCwxLTAuNDQ3LDEtMVYyOWMwLTAuNTUzLTAuNDQ3LTEtMS0xcy0xLDAuNDQ3LTEsMXYxMEMxNSwzOS41NTMsMTUuNDQ3LDQwLDE2LDQweiIvPiYjeGE7CTwvZz4mI3hhOzwvZz4mI3hhOzwvc3ZnPg==" parent="1" vertex="1">
          <mxGeometry x="680" y="350.0000000000002" width="48" height="48" as="geometry" />
        </mxCell>
        <mxCell id="3ne1QswCM8ZiEu4GHsYG-30" style="orthogonalLoop=1;jettySize=auto;html=1;curved=1;sourcePerimeterSpacing=5;targetPerimeterSpacing=5;" parent="1" source="3ne1QswCM8ZiEu4GHsYG-13" target="3ne1QswCM8ZiEu4GHsYG-16" edge="1">
          <mxGeometry relative="1" as="geometry">
            <Array as="points">
              <mxPoint x="790" y="240" />
            </Array>
          </mxGeometry>
        </mxCell>
        <mxCell id="3ne1QswCM8ZiEu4GHsYG-15" value="Taller" style="shape=image;verticalLabelPosition=bottom;verticalAlign=top;aspect=fixed;image=data:image/svg+xml,PHN2ZyB4bWxucz0iaHR0cDovL3d3dy53My5vcmcvMjAwMC9zdmciIHhtbG5zOnhsaW5rPSJodHRwOi8vd3d3LnczLm9yZy8xOTk5L3hsaW5rIiB2ZXJzaW9uPSIxLjEiIGlkPSJMYXllcl8xIiB4PSIwcHgiIHk9IjBweCIgd2lkdGg9IjQ4cHgiIGhlaWdodD0iNDhweCIgdmlld0JveD0iMCAwIDQ4IDQ4IiBlbmFibGUtYmFja2dyb3VuZD0ibmV3IDAgMCA0OCA0OCIgeG1sOnNwYWNlPSJwcmVzZXJ2ZSI+JiN4YTs8ZyBpZD0iY29sb3JfNTdfIj4mI3hhOwk8Zz4mI3hhOwkJPHBhdGggZmlsbD0iI0ZGREE4RSIgZD0iTTIzLDhjMC41NTIsMCwxLTAuNDQ3LDEtMVYzYzAtMC41NTMtMC40NDgtMS0xLTFzLTEsMC40NDctMSwxdjRDMjIsNy41NTMsMjIuNDQ4LDgsMjMsOHogTTI4Ljc2Miw4LjY5MiAgICBsMi45MzgtMi45MzhjMC40MDYtMC40MDYsMC40MDYtMS4wNjMsMC0xLjQ3Yy0wLjQwNi0wLjQwNS0xLjA2My0wLjQwNS0xLjQ2OSwwbC0yLjkzOCwyLjkzOGMtMC40MDYsMC40MDYtMC40MDYsMS4wNjQsMCwxLjQ3ICAgIFMyOC4zNTYsOS4wOTgsMjguNzYyLDguNjkyeiBNMTcuMjM4LDguNjkyYzAuNDA2LDAuNDA1LDEuMDYzLDAuNDA1LDEuNDY5LDBzMC40MDYtMS4wNjMsMC0xLjQ3bC0yLjkzOC0yLjkzOCAgICBjLTAuNDA2LTAuNDA1LTEuMDY0LTAuNDA1LTEuNDcsMGMtMC40MDUsMC40MDYtMC40MDUsMS4wNjMsMCwxLjQ3TDE3LjIzOCw4LjY5MnogTTQyLDIyaC05LjM4MmwtMy43MjQtNy40NDdsLTAuMDA5LDAuMDA1ICAgIEMyOC43MjEsMTQuMjMsMjguMzkxLDE0LDI4LDE0SDEwYy0wLjU1MiwwLTEsMC40NDctMSwxYzAsMC4xNjEsMC4wNDcsMC4zMDgsMC4xMTUsMC40NDJsLTAuMDA5LDAuMDA1TDExLDE5LjIzNlY0NSAgICBjMCwwLjU1MywwLjQ0OCwxLDEsMWgzMGMwLjU1MiwwLDEtMC40NDcsMS0xVjIzQzQzLDIxLjk0Myw0MiwyMiw0MiwyMnoiLz4mI3hhOwk8L2c+JiN4YTs8L2c+JiN4YTs8ZyBpZD0ib3V0bGluZV81NV8iPiYjeGE7CTxnPiYjeGE7CQk8cGF0aCBmaWxsPSIjMzg0RDY4IiBkPSJNNDYsMTFjMC0wLjU1My0wLjQ0OC0xLTEtMUgzNWMtMC41NTIsMC0xLDAuNDQ3LTEsMXMwLjQ0OCwxLDEsMWg4LjM4MmwtNCw4aC02Ljc2NGwtNC43MjQtOS40NDcgICAgbC0wLjAwOSwwLjAwNUMyNy43MjEsMTAuMjMsMjcuMzkxLDEwLDI3LDEwSDNjLTAuNTUyLDAtMSwwLjQ0Ny0xLDFjMCwwLjE2MSwwLjA0NywwLjMwOCwwLjExNSwwLjQ0MmwtMC4wMDksMC4wMDVMNywyMS4yMzZWNDMgICAgYzAsMC41NTMsMC40NDgsMSwxLDFoMzJjMC41NTIsMCwxLTAuNDQ3LDEtMVYyMS4yMzZsNC44OTUtOS43ODlsLTAuMDA5LTAuMDA1QzQ1Ljk1MywxMS4zMDgsNDYsMTEuMTYxLDQ2LDExeiBNNC42MTgsMTJoMjEuNzY0ICAgIGw0LDhIOC42MThMNC42MTgsMTJ6IE0zMSw0MWMwLDAuNTUzLTAuNDQ4LDEtMSwxSDlWMjJoMjFjMC41NTIsMCwxLDAuNDQ3LDEsMVY0MXogTTM5LDQyaC01Yy0wLjU1MiwwLTEtMC40NDctMS0xVjIzICAgIGMwLTAuNTUzLDAuNDQ4LTEsMS0xaDVWNDJ6Ii8+JiN4YTsJPC9nPiYjeGE7PC9nPiYjeGE7PC9zdmc+" parent="1" vertex="1">
          <mxGeometry x="840" y="340.00000000000034" width="48" height="48" as="geometry" />
        </mxCell>
        <mxCell id="3ne1QswCM8ZiEu4GHsYG-16" value="Administration&#xa;Central de Datos" style="shape=image;verticalLabelPosition=bottom;verticalAlign=top;aspect=fixed;image=data:image/svg+xml,PHN2ZyB4bWxucz0iaHR0cDovL3d3dy53My5vcmcvMjAwMC9zdmciIHhtbG5zOnhsaW5rPSJodHRwOi8vd3d3LnczLm9yZy8xOTk5L3hsaW5rIiB2ZXJzaW9uPSIxLjEiIGlkPSJMYXllcl8xIiB4PSIwcHgiIHk9IjBweCIgd2lkdGg9IjQ4cHgiIGhlaWdodD0iNDhweCIgdmlld0JveD0iMCAwIDQ4IDQ4IiBlbmFibGUtYmFja2dyb3VuZD0ibmV3IDAgMCA0OCA0OCIgeG1sOnNwYWNlPSJwcmVzZXJ2ZSI+JiN4YTs8ZyBpZD0iY29sb3JfNTFfIj4mI3hhOwk8Zz4mI3hhOwkJPHBhdGggZmlsbD0iIzg5OENDNSIgZD0iTTQzLDZoLTV2NGMwLDEuMTA0LTAuODk2LDItMiwyaC0yYy0xLjEwNCwwLTItMC44OTYtMi0yVjZIMTh2NGMwLDEuMTA0LTAuODk2LDItMiwyaC0yICAgIGMtMS4xMDQsMC0yLTAuODk2LTItMlY2SDlDOC40NDcsNiw4LDYuNDQ3LDgsN3YzOGMwLDAuNTUzLDAuNDQ3LDEsMSwxaDM0YzAuNTUzLDAsMS0wLjQ0NywxLTFWN0M0NCw2LjQ0Nyw0My41NTMsNiw0Myw2eiIvPiYjeGE7CTwvZz4mI3hhOzwvZz4mI3hhOzxnIGlkPSJvdXRsaW5lXzQ5XyI+JiN4YTsJPGc+JiN4YTsJCTxwYXRoIGZpbGw9IiMzODRENjgiIGQ9Ik0xNS43MTUsMjguMjg1Yy0wLjM3NS0wLjM3NS0wLjk4Mi0wLjM3NS0xLjM1NywwTDEzLDI5LjY0M2wtMS4zNTctMS4zNTcgICAgYy0wLjM3NS0wLjM3NS0wLjk4Mi0wLjM3NS0xLjM1NywwYy0wLjM3NSwwLjM3NC0wLjM3NSwwLjk4MiwwLDEuMzU3TDExLjY0MywzMWwtMS4zNTcsMS4zNTdjLTAuMzc1LDAuMzc1LTAuMzc1LDAuOTgzLDAsMS4zNTcgICAgYzAuMzc1LDAuMzc1LDAuOTgyLDAuMzc1LDEuMzU3LDBMMTMsMzIuMzU3bDEuMzU3LDEuMzU3YzAuMzc1LDAuMzc1LDAuOTgyLDAuMzc1LDEuMzU3LDBjMC4zNzUtMC4zNzQsMC4zNzUtMC45ODIsMC0xLjM1NyAgICBMMTQuMzU3LDMxbDEuMzU3LTEuMzU3QzE2LjA5LDI5LjI2OCwxNi4wOSwyOC42NTksMTUuNzE1LDI4LjI4NXogTTE1LjcxNSwxOC4yODVjLTAuMzc1LTAuMzc1LTAuOTgyLTAuMzc1LTEuMzU3LDBMMTMsMTkuNjQzICAgIGwtMS4zNTctMS4zNTdjLTAuMzc1LTAuMzc1LTAuOTgyLTAuMzc1LTEuMzU3LDBjLTAuMzc1LDAuMzc0LTAuMzc1LDAuOTgyLDAsMS4zNTdMMTEuNjQzLDIxbC0xLjM1NywxLjM1NyAgICBjLTAuMzc1LDAuMzc1LTAuMzc1LDAuOTgyLDAsMS4zNTdzMC45ODIsMC4zNzUsMS4zNTcsMEwxMywyMi4zNTdsMS4zNTcsMS4zNTdjMC4zNzUsMC4zNzUsMC45ODIsMC4zNzUsMS4zNTcsMCAgICBzMC4zNzUtMC45ODIsMC0xLjM1N0wxNC4zNTcsMjFsMS4zNTctMS4zNTdDMTYuMDksMTkuMjY4LDE2LjA5LDE4LjY1OSwxNS43MTUsMTguMjg1eiBNNDEsNmgtNVY0YzAtMS4xMDQtMC44OTYtMi0yLTJoLTIgICAgYy0xLjEwNCwwLTIsMC44OTYtMiwydjJIMTZWNGMwLTEuMTA0LTAuODk2LTItMi0yaC0yYy0xLjEwNCwwLTIsMC44OTYtMiwydjJINUM0LjQ0Nyw2LDQsNi40NDcsNCw3djM4YzAsMC41NTMsMC40NDcsMSwxLDFoMzYgICAgYzAuNTUzLDAsMS0wLjQ0NywxLTFWN0M0Miw2LjQ0Nyw0MS41NTMsNiw0MSw2eiBNMzIsNWMwLTAuNTUzLDAuNDQ3LTEsMS0xczEsMC40NDcsMSwxdjRjMCwwLjU1My0wLjQ0NywxLTEsMXMtMS0wLjQ0Ny0xLTFWNXogICAgIE0xMiw1YzAtMC41NTMsMC40NDctMSwxLTFzMSwwLjQ0NywxLDF2NGMwLDAuNTUzLTAuNDQ3LDEtMSwxcy0xLTAuNDQ3LTEtMVY1eiBNNDAsNDRINlY4aDR2MmMwLDEuMTA0LDAuODk2LDIsMiwyaDIgICAgYzEuMTA0LDAsMi0wLjg5NiwyLTJWOGgxNHYyYzAsMS4xMDQsMC44OTYsMiwyLDJoMmMxLjEwNCwwLDItMC44OTYsMi0yVjhoNFY0NHogTTM0LDIwSDIwYy0wLjU1MywwLTEsMC40NDctMSwxczAuNDQ3LDEsMSwxaDE0ICAgIGMwLjU1MywwLDEtMC40NDcsMS0xUzM0LjU1MywyMCwzNCwyMHogTTMwLDMwSDIwYy0wLjU1MywwLTEsMC40NDctMSwxczAuNDQ3LDEsMSwxaDEwYzAuNTUzLDAsMS0wLjQ0NywxLTFTMzAuNTUzLDMwLDMwLDMweiIvPiYjeGE7CTwvZz4mI3hhOzwvZz4mI3hhOzwvc3ZnPg==" parent="1" vertex="1">
          <mxGeometry x="830" y="190.0000000000001" width="48" height="48" as="geometry" />
        </mxCell>
        <mxCell id="3ne1QswCM8ZiEu4GHsYG-31" value="Company Changes in Car Delivery" style="text;html=1;strokeColor=none;fillColor=none;align=center;verticalAlign=middle;whiteSpace=wrap;rounded=0;fontStyle=1;fontSize=20;fontColor=#4D4D4D;" parent="1" vertex="1">
          <mxGeometry x="189.5" y="50" width="790" height="30" as="geometry" />
        </mxCell>
        <mxCell id="3ne1QswCM8ZiEu4GHsYG-32" value="" style="line;strokeWidth=2;html=1;fontSize=20;fontColor=#4D4D4D;" parent="1" vertex="1">
          <mxGeometry x="103.5" y="80" width="960" height="10" as="geometry" />
        </mxCell>
        <mxCell id="AtJPnU6ylXlXL8gNKxG5-7" value="Compra" style="shape=image;verticalLabelPosition=bottom;verticalAlign=top;aspect=fixed;image=data:image/svg+xml,PHN2ZyB4bWxucz0iaHR0cDovL3d3dy53My5vcmcvMjAwMC9zdmciIHhtbG5zOnhsaW5rPSJodHRwOi8vd3d3LnczLm9yZy8xOTk5L3hsaW5rIiB2ZXJzaW9uPSIxLjEiIGlkPSJMYXllcl8xIiB4PSIwcHgiIHk9IjBweCIgd2lkdGg9IjQ4cHgiIGhlaWdodD0iNDhweCIgdmlld0JveD0iMCAwIDQ4IDQ4IiBlbmFibGUtYmFja2dyb3VuZD0ibmV3IDAgMCA0OCA0OCIgeG1sOnNwYWNlPSJwcmVzZXJ2ZSI+JiN4YTs8ZyBpZD0iY29sb3JfNjBfIj4mI3hhOwk8Zz4mI3hhOwkJPHBhdGggZmlsbD0iI0ZGREE4RSIgZD0iTTQ0LjM2OSw0MC43MDJsLTIuMDYyLTMuMzk0Yy0wLjI4NS0wLjQ2OS0wLjkwOS0wLjYzMy0xLjM5NC0wLjM2N2wtMi42MzMsMS40NDNsLTEuMDMxLTEuNjk3bDIuNjMzLTEuNDQzICAgIGMwLjQ4NC0wLjI2NiwwLjY0Ni0wLjg2MSwwLjM2Mi0xLjMyOWwtMi4wNjMtMy4zOTRjLTAuMjg1LTAuNDY5LTAuOTA5LTAuNjM0LTEuMzk0LTAuMzY4bC0yLjYzMywxLjQ0M2wtNS43OTgtOS41NCAgICBjMS45MzktMi4xMzIsMy4xMzItNC45NTUsMy4xMzItOC4wNjRjMC02LjYyNy01LjM3My0xMi0xMi0xMnMtMTIsNS4zNzMtMTIsMTJzNS4zNzMsMTIsMTIsMTJjMS4zNDgsMCwyLjY0MS0wLjIzMiwzLjg1LTAuNjQzICAgIGwxMi4yNTQsMjAuMTYzYzAuMjg0LDAuNDY5LDAuOTA4LDAuNjMzLDEuMzkzLDAuMzY3bDcuMDIxLTMuODQ5QzQ0LjQ5Miw0MS43NjYsNDQuNjU0LDQxLjE3MSw0NC4zNjksNDAuNzAyeiIvPiYjeGE7CTwvZz4mI3hhOzwvZz4mI3hhOzxnIGlkPSJvdXRsaW5lXzU4XyI+JiN4YTsJPGc+JiN4YTsJCTxwYXRoIGZpbGw9IiMzODRENjgiIGQ9Ik00MC4zNjksNDAuNzAybC0yLjA2Mi0zLjM5NGMtMC4yODUtMC40NjktMC45MDktMC42MzMtMS4zOTQtMC4zNjdsLTIuNjMzLDEuNDQzbC0xLjAzMS0xLjY5N2wyLjYzMy0xLjQ0MyAgICBjMC40ODQtMC4yNjYsMC42NDYtMC44NjEsMC4zNjItMS4zMjlsLTIuMDYzLTMuMzk0Yy0wLjI4NS0wLjQ2OS0wLjkwOS0wLjYzNC0xLjM5NC0wLjM2OGwtMi42MzMsMS40NDNsLTUuNzk4LTkuNTQgICAgYzEuOTM5LTIuMTMyLDMuMTMyLTQuOTU1LDMuMTMyLTguMDY0YzAtNi42MjctNS4zNzMtMTItMTItMTJzLTEyLDUuMzczLTEyLDEyczUuMzczLDEyLDEyLDEyYzEuMzQ4LDAsMi42NDEtMC4yMzIsMy44NS0wLjY0MyAgICBsMTIuMjU0LDIwLjE2M2MwLjI4NCwwLjQ2OSwwLjkwOCwwLjYzMywxLjM5MywwLjM2N2w3LjAyMS0zLjg0OUM0MC40OTIsNDEuNzY2LDQwLjY1NCw0MS4xNzEsNDAuMzY5LDQwLjcwMnogTTMyLjgzMyw0My43MDIgICAgTDIwLjEzMSwyMi44NDZjLTEuMzg3LDAuNzI5LTIuOTY1LDEuMTQ2LTQuNjQxLDEuMTQ2Yy01LjUyMywwLTEwLTQuNDc4LTEwLTEwczQuNDc3LTEwLDEwLTEwczEwLDQuNDc4LDEwLDEwICAgIGMwLDMuMTI4LTEuNDM4LDUuOTE5LTMuNjg4LDcuNzUzbDcuMTE0LDExLjY2MmMwLjI4NCwwLjQ2OSwwLjkwOCwwLjYzMywxLjM5MywwLjM2N2wyLjYzMy0xLjQ0MmwxLjAzMSwxLjY5NmwtMi42MzMsMS40NDMgICAgYy0wLjQ4NCwwLjI2Ni0wLjY0NiwwLjg2LTAuMzYxLDEuMzI5bDIuMDYzLDMuMzk1YzAuMjg0LDAuNDY4LDAuOTA4LDAuNjMzLDEuMzkzLDAuMzY3bDIuNjMzLTEuNDQzbDEuMDMxLDEuNjk3TDMyLjgzMyw0My43MDJ6ICAgICBNMTUuNDksNS45OTJjLTQuNDE4LDAtOCwzLjU4Mi04LDhzMy41ODIsOCw4LDhzOC0zLjU4Miw4LThTMTkuOTA4LDUuOTkyLDE1LjQ5LDUuOTkyeiBNMTUuNDksMTkuOTkyYy0zLjMxNCwwLTYtMi42ODctNi02ICAgIHMyLjY4Ni02LDYtNmMzLjMxMywwLDYsMi42ODcsNiw2UzE4LjgwNCwxOS45OTIsMTUuNDksMTkuOTkyeiIvPiYjeGE7CTwvZz4mI3hhOzwvZz4mI3hhOzwvc3ZnPg==" vertex="1" parent="1">
          <mxGeometry x="1040" y="200" width="48" height="48" as="geometry" />
        </mxCell>
        <mxCell id="AtJPnU6ylXlXL8gNKxG5-10" style="orthogonalLoop=1;jettySize=auto;html=1;curved=1;sourcePerimeterSpacing=5;targetPerimeterSpacing=5;" edge="1" parent="1" source="3ne1QswCM8ZiEu4GHsYG-16" target="AtJPnU6ylXlXL8gNKxG5-7">
          <mxGeometry relative="1" as="geometry">
            <mxPoint x="1011.0348837209303" y="290.17000000000047" as="sourcePoint" />
            <mxPoint x="1063.5" y="199.9969230769231" as="targetPoint" />
            <Array as="points">
              <mxPoint x="988.5" y="233.17000000000002" />
            </Array>
          </mxGeometry>
        </mxCell>
        <mxCell id="AtJPnU6ylXlXL8gNKxG5-12" style="orthogonalLoop=1;jettySize=auto;html=1;curved=1;sourcePerimeterSpacing=5;targetPerimeterSpacing=5;" edge="1" parent="1" source="3ne1QswCM8ZiEu4GHsYG-16" target="3ne1QswCM8ZiEu4GHsYG-15">
          <mxGeometry relative="1" as="geometry">
            <mxPoint x="840" y="223.13330855018603" as="sourcePoint" />
            <mxPoint x="941.9266491514593" y="350" as="targetPoint" />
            <Array as="points">
              <mxPoint x="945.5" y="238.17000000000002" />
            </Array>
          </mxGeometry>
        </mxCell>
        <mxCell id="AtJPnU6ylXlXL8gNKxG5-3" value="Concesionario/Taller" style="shape=image;verticalLabelPosition=bottom;verticalAlign=top;aspect=fixed;image=data:image/svg+xml,PHN2ZyB4bWxucz0iaHR0cDovL3d3dy53My5vcmcvMjAwMC9zdmciIHhtbG5zOnhsaW5rPSJodHRwOi8vd3d3LnczLm9yZy8xOTk5L3hsaW5rIiB2ZXJzaW9uPSIxLjEiIGlkPSJMYXllcl8xIiB4PSIwcHgiIHk9IjBweCIgd2lkdGg9IjQ4cHgiIGhlaWdodD0iNDhweCIgdmlld0JveD0iMCAwIDQ4IDQ4IiBlbmFibGUtYmFja2dyb3VuZD0ibmV3IDAgMCA0OCA0OCIgeG1sOnNwYWNlPSJwcmVzZXJ2ZSI+JiN4YTs8ZyBpZD0iY29sb3JfMTlfIj4mI3hhOwk8Zz4mI3hhOwkJPGNpcmNsZSBmaWxsPSIjRjE2MzYyIiBjeD0iMjciIGN5PSIxOSIgcj0iMTAiLz4mI3hhOwk8L2c+JiN4YTs8L2c+JiN4YTs8ZyBpZD0ib3V0bGluZV8xOF8iPiYjeGE7CTxnPiYjeGE7CQk8cGF0aCBmaWxsLXJ1bGU9ImV2ZW5vZGQiIGNsaXAtcnVsZT0iZXZlbm9kZCIgZmlsbD0iIzM4NEQ2OCIgZD0iTTI4LjQ0MiwxMy4xMTRsMC4wMDUtMC4wMDlsLTQtMmwtMC4wMDUsMC4wMDkgICAgQzI0LjMwOCwxMS4wNDcsMjQuMTYxLDExLDI0LDExcy0wLjMwOCwwLjA0Ny0wLjQ0MiwwLjExNGwtMC4wMDUtMC4wMDlsLTQsMmwwLjAwNCwwLjAwOUMxOS4yMywxMy4yNzksMTksMTMuNjA5LDE5LDE0djUgICAgYzAsMC4zOTEsMC4yMywwLjcyMSwwLjU1NywwLjg4NmwtMC4wMDQsMC4wMDlsNCwybDAuMDA1LTAuMDA5QzIzLjY5MiwyMS45NTMsMjMuODM5LDIyLDI0LDIyczAuMzA4LTAuMDQ3LDAuNDQyLTAuMTE0ICAgIGwwLjAwNSwwLjAwOWw0LTJsLTAuMDA1LTAuMDA5QzI4Ljc3LDE5LjcyMSwyOSwxOS4zOTEsMjksMTl2LTVDMjksMTMuNjA5LDI4Ljc3LDEzLjI3OSwyOC40NDIsMTMuMTE0eiBNMjMsMTkuMzgybC0yLTF2LTIuNzY0ICAgIGwyLDFWMTkuMzgyeiBNMjQsMTQuODgyTDIyLjIzNiwxNEwyNCwxMy4xMThMMjUuNzY0LDE0TDI0LDE0Ljg4MnogTTI3LDE4LjM4MmwtMiwxdi0yLjc2NGwyLTFWMTguMzgyeiBNMjQsMiAgICBDMTUuNzE2LDIsOSw4LjcxNiw5LDE3YzAsMTMuODkxLDE0LjYyNiwyOSwxNSwyOWMwLjE3NCwwLDE1LTE0Ljk2NiwxNS0yOUMzOSw4LjcxNiwzMi4yODQsMiwyNCwyeiBNMjQsNDMgICAgYy0wLjMyNCwwLTEzLTE0LjA1LTEzLTI2LjA0NkMxMSw5LjgsMTYuODIsNCwyNCw0czEzLDUuOCwxMywxMi45NTRDMzcsMjkuMDc0LDI0LjE1LDQzLDI0LDQzeiBNMjQsNmMtNi4wNzUsMC0xMSw0LjkyNS0xMSwxMSAgICBzNC45MjUsMTEsMTEsMTFzMTEtNC45MjUsMTEtMTFTMzAuMDc1LDYsMjQsNnogTTI0LDI2Yy00Ljk3MSwwLTktNC4wMjktOS05czQuMDI5LTksOS05czksNC4wMjksOSw5UzI4Ljk3MSwyNiwyNCwyNnoiLz4mI3hhOwk8L2c+JiN4YTs8L2c+JiN4YTs8L3N2Zz4=" vertex="1" parent="1">
          <mxGeometry x="230" y="327" width="48" height="48" as="geometry" />
        </mxCell>
        <mxCell id="AtJPnU6ylXlXL8gNKxG5-1" value="Cliente" style="shape=image;verticalLabelPosition=bottom;verticalAlign=top;aspect=fixed;image=data:image/svg+xml,PHN2ZyB4bWxucz0iaHR0cDovL3d3dy53My5vcmcvMjAwMC9zdmciIHhtbG5zOnhsaW5rPSJodHRwOi8vd3d3LnczLm9yZy8xOTk5L3hsaW5rIiB2ZXJzaW9uPSIxLjEiIGlkPSJMYXllcl8xIiB4PSIwcHgiIHk9IjBweCIgd2lkdGg9IjQ4cHgiIGhlaWdodD0iNDhweCIgdmlld0JveD0iMCAwIDQ4IDQ4IiBlbmFibGUtYmFja2dyb3VuZD0ibmV3IDAgMCA0OCA0OCIgeG1sOnNwYWNlPSJwcmVzZXJ2ZSI+JiN4YTs8ZyBpZD0iY29sb3JfMTZfIj4mI3hhOwk8Zz4mI3hhOwkJPHBhdGggZmlsbD0iI0ZGREE4RSIgZD0iTTE2LjAzNCw2LjEwOUMxNi4wNTcsNi4yMzcsMTYuMDgyLDYuMjcxLDE2LjAzNCw2LjEwOUwxNi4wMzQsNi4xMDl6IE0zNy45NjYsNi4xMDkgICAgQzM3LjkxOCw2LjI3MSwzNy45NDMsNi4yMzcsMzcuOTY2LDYuMTA5TDM3Ljk2Niw2LjEwOXogTTM3LDVIMTdjLTEuMDI2LDAtMS4wMTksMC43ODYtMC45NjgsMS4wOTYgICAgQzE2LjI3Miw2LjgxNywxNy45MDgsMTEuNzI4LDE4LDEydjEwYzAsNC42MDMsNC40NDQsOCw5LDhzOS0zLjM5Nyw5LThWMTJsMS45NjgtNS45MDRDMzguMDE5LDUuNzg2LDM4LjAyNiw1LDM3LDV6IE0zNy45NjgsNi4wOTYgICAgYy0wLjAwMSwwLjAwNS0wLjAwMSwwLjAwOS0wLjAwMiwwLjAxNEMzNy45NzUsNi4wNzksMzcuOTg1LDYuMDQ1LDM4LDZMMzcuOTY4LDYuMDk2eiBNMTYuMDM0LDYuMTA5ICAgIGMtMC4wMDEtMC4wMDQtMC4wMDEtMC4wMDktMC4wMDItMC4wMTNDMTYuMDEzLDYuMDM5LDE2LDYsMTYsNkMxNi4wMTUsNi4wNDUsMTYuMDI1LDYuMDc5LDE2LjAzNCw2LjEwOXoiLz4mI3hhOwk8L2c+JiN4YTs8L2c+JiN4YTs8ZyBpZD0ib3V0bGluZV8zMV8iPiYjeGE7CTxnPiYjeGE7CQk8cGF0aCBmaWxsLXJ1bGU9ImV2ZW5vZGQiIGNsaXAtcnVsZT0iZXZlbm9kZCIgZmlsbD0iIzM4NEQ2OCIgZD0iTTEyLjEwMywzLjQ3MWwtMC4wNTItMC4xNTVsMC4wMDUtMC4wMDIgICAgQzEyLjA4LDMuMzg5LDEyLjA5NCwzLjQzNiwxMi4xMDMsMy40NzFsMS45NDgsNS44NDVsMC4wMDUtMC4wMDJjMC4wODUsMC4yNTUsMC4yNzIsMC40NTQsMC41MDksMC41NzIgICAgQzE0LjIwMywxMC44NTYsMTQsMTEuOTAzLDE0LDEzdjdjMCw0Ljk3MSw1LjAyOSw5LDEwLDlzMTAtNC4wMjksMTAtOXYtN2MwLTEuMDU0LTAuMTg5LTIuMDYyLTAuNTI0LTNINDFjMC41NTMsMCwxLTAuNDQ3LDEtMSAgICBzLTAuNDQ3LTEtMS0xaC02LjYxM2wxLjUxMS00LjUyOWMwLjAwOS0wLjAzNiwwLjAyMi0wLjA4MywwLjA0Ny0wLjE1NmwwLjAwNSwwLjAwMmwtMC4wNTIsMC4xNTRDMzUuNzk3LDMuODc2LDM2LjU3MywyLDM1LDJIMTMgICAgQzExLjQyNiwyLDEyLjIwMiwzLjg3NSwxMi4xMDMsMy40NzF6IE0zMiwyMGMwLDMuODY2LTQuMTM0LDctOCw3cy04LTMuMTM0LTgtN3YtN2MwLTEuMDc3LDAuMjU0LTIuMDkxLDAuNjktM2gxNC42MTggICAgQzMxLjc0NiwxMC45MDksMzIsMTEuOTIzLDMyLDEzVjIweiBNMzMuNjEzLDRsLTEuMzM0LDRIMTUuNzIxbC0xLjMzNC00SDMzLjYxM3ogTTM2LDMzSDEyQzYuNDc3LDMzLDIsMzcuNDc4LDIsNDN2MiAgICBjMCwwLjU1MywwLjQ0NywxLDEsMXMxLTAuNDQ3LDEtMXYtMmMwLTQuNDE4LDMuNTgyLTgsOC04aDI0YzQuNDE4LDAsOCwzLjU4Miw4LDh2MmMwLDAuNTUzLDAuNDQ3LDEsMSwxczEtMC40NDcsMS0xdi0yICAgIEM0NiwzNy40NzgsNDEuNTIzLDMzLDM2LDMzeiBNMjQsMjFjMC41NTMsMCwxLTAuNDQ3LDEtMXYtNGMwLTAuNTUzLTAuNDQ3LTEtMS0xcy0xLDAuNDQ3LTEsMXY0QzIzLDIwLjU1MywyMy40NDcsMjEsMjQsMjF6ICAgICBNMjgsMTNjLTAuNTUzLDAtMSwwLjQ0Ny0xLDFzMC40NDcsMSwxLDFzMS0wLjQ0NywxLTFTMjguNTUzLDEzLDI4LDEzeiBNMjAsMTVjMC41NTMsMCwxLTAuNDQ3LDEtMXMtMC40NDctMS0xLTFzLTEsMC40NDctMSwxICAgIFMxOS40NDcsMTUsMjAsMTV6IE0yOCwyMWMtMC4yODUsMC0wLjUzOSwwLjEyMy0wLjcyMiwwLjMxNEMyNi41NDksMjIuMDM3LDI1LjA5NiwyMywyNCwyM2MtMS4xMDQsMC0yLjU3My0xLjAxLTMuMjk3LTEuNzM0ICAgIGMwLDAtMC4xNzgtMC4yNjYtMC43MDMtMC4yNjZjLTAuNTUzLDAtMSwwLjQ0Ny0xLDFjMCwwLjMxNiwwLjE1NiwwLjU4NywwLjM4NiwwLjc3QzIwLjQ4OCwyMy44MzMsMjIuMzg5LDI1LDI0LDI1ICAgIGMxLjY1NiwwLDMuNjI1LTEuMjAzLDQuNzExLTIuMjg5bC0wLjAwNC0wLjAwNEMyOC44ODksMjIuNTI2LDI5LDIyLjI3NiwyOSwyMkMyOSwyMS40NDcsMjguNTUzLDIxLDI4LDIxeiIvPiYjeGE7CTwvZz4mI3hhOzwvZz4mI3hhOzwvc3ZnPg==" vertex="1" parent="1">
          <mxGeometry x="103.5" y="327" width="48" height="48" as="geometry" />
        </mxCell>
      </root>
    </mxGraphModel>
  </diagram>
</mxfile>
